<svg xmlns="http://www.w3.org/2000/svg" width="28.666" height="28.666" viewBox="0 0 28.666 28.666"><defs><style>.a{fill:#000000;}</style></defs><g transform="translate(0 0)"><path class="a" d="M179.8,341.982a.594.594,0,0,0,.6.6h7.7a.594.594,0,0,0,.6-.6V332.2h-8.9Z" transform="translate(-169.915 -313.912)"/><path class="a" d="M29.233,10.576h-4.3v-6.1a1.448,1.448,0,0,0-1.021-1.388,26.376,26.376,0,0,0-15.163,0A1.442,1.442,0,0,0,7.728,4.476v6.1H3.433A1.435,1.435,0,0,0,2,12.009v17.2a1.435,1.435,0,0,0,1.433,1.433H8.591a.574.574,0,0,0,.576-.576V20.608a2.863,2.863,0,0,1,2.867-2.866h8.6A2.863,2.863,0,0,1,23.5,20.608v9.457a.574.574,0,0,0,.576.576h5.158a1.435,1.435,0,0,0,1.433-1.433v-17.2A1.435,1.435,0,0,0,29.233,10.576ZM20.633,10a.574.574,0,0,1-.576.576H17.766v2.291a.574.574,0,0,1-.576.576H15.47a.574.574,0,0,1-.576-.576V10.576H12.609A.574.574,0,0,1,12.033,10V8.279a.574.574,0,0,1,.576-.576H14.9V5.418a.574.574,0,0,1,.576-.576H17.2a.574.574,0,0,1,.576.576V7.709h2.285a.574.574,0,0,1,.576.576Z" transform="translate(-2 -1.975)"/></g></svg>