<svg xmlns="http://www.w3.org/2000/svg" width="57.109" height="54.825" viewBox="0 0 57.109 54.825">
  <path id="text-box-check-outline" d="M45.642,57.825l-8.376-9.138L40.8,45.154,45.642,50,56.576,39.063l3.533,4.295M32.849,57.825H9.092A6.071,6.071,0,0,1,3,51.733V9.092A6.071,6.071,0,0,1,9.092,3H51.733a6.071,6.071,0,0,1,6.092,6.092V32.849a18.228,18.228,0,0,0-6.092-2.193V9.092H9.092V51.733H30.656a18.228,18.228,0,0,0,2.193,6.092M30.413,45.642H15.183V39.55H30.413m8.163-6.092H15.183V27.367H45.642v3.29a17.944,17.944,0,0,0-7.066,2.8m7.066-12.183H15.183V15.183H45.642" transform="translate(-3 -3)" fill="#08f"/>
</svg>
