<svg xmlns="http://www.w3.org/2000/svg" xmlns:xlink="http://www.w3.org/1999/xlink" width="29" height="36.869" viewBox="0 0 29 36.869">
  <defs>
    <linearGradient id="linear-gradient" x1="0.721" y1="-0.017" x2="0.072" y2="0.847" gradientUnits="objectBoundingBox">
      <stop offset="0" stop-color="#2c3586"/>
      <stop offset="1" stop-color="#2c3586"/>
    </linearGradient>
    <linearGradient id="linear-gradient-2" x1="0.206" y1="0.048" x2="0.816" y2="0.846" gradientUnits="objectBoundingBox">
      <stop offset="0" stop-color="#29bcb3"/>
      <stop offset="1" stop-color="#35b3ad"/>
    </linearGradient>
    <linearGradient id="linear-gradient-3" x1="1.031" y1="0.146" x2="0.036" y2="0.746" gradientUnits="objectBoundingBox">
      <stop offset="0.78" stop-color="#2c3586"/>
      <stop offset="0.86" stop-color="#2d3788"/>
      <stop offset="0.91" stop-color="#30408f"/>
      <stop offset="0.95" stop-color="#364e9c"/>
      <stop offset="0.99" stop-color="#3e63ae"/>
      <stop offset="1" stop-color="#4068b2"/>
    </linearGradient>
    <linearGradient id="linear-gradient-4" x1="1.169" y1="0.718" x2="-0.122" y2="0.312" gradientUnits="objectBoundingBox">
      <stop offset="0.56" stop-color="#32bdb6"/>
      <stop offset="1" stop-color="#28aba6"/>
    </linearGradient>
    <linearGradient id="linear-gradient-5" x1="-0.081" y1="0.23" x2="1.129" y2="0.788" gradientUnits="objectBoundingBox">
      <stop offset="0" stop-color="#29bcb3"/>
      <stop offset="1" stop-color="#39beb7"/>
    </linearGradient>
    <linearGradient id="linear-gradient-6" x1="0.026" y1="0.736" x2="1.33" y2="0.243" gradientUnits="objectBoundingBox">
      <stop offset="0" stop-color="#4068b2"/>
      <stop offset="0.3" stop-color="#2c3586"/>
    </linearGradient>
  </defs>
  <g id="Group_9867" data-name="Group 9867" transform="translate(-21 -29)">
    <g id="TWlogo" transform="translate(21 29)">
      <g id="Group_9857" data-name="Group 9857">
        <path id="Path_602" data-name="Path 602" d="M45.16,28.089c-4.944-4.063-12.129-2.324-15.381-.2a12.115,12.115,0,0,0-4.628,5.354c-2.919,6.742.332,14.658,3.43,19.5.726,1.136,1.544,2.214,2.3,3.341l-.911-1c-1.665-1.829-3.382-3.614-4.983-5.5-1.772-2.088-4.692-6.7-4.223-12.1a13.926,13.926,0,0,1,3.09-7.723A15.718,15.718,0,0,1,32.6,24.573,14.028,14.028,0,0,1,45.16,28.088Z" transform="translate(-20.713 -24.268)" fill="url(#linear-gradient)"/>
        <path id="Path_603" data-name="Path 603" d="M155.07,77.184c1.137-.793,4.378-.33,4.378-.33a22.971,22.971,0,0,1,3.931.8,11.319,11.319,0,0,1,1.373,4.728c-.326,4.528-2.268,10.483-6.982,11.233a7.083,7.083,0,0,1-3.751-.6c2.01-2.2,3.838-8.6,1.048-15.827Z" transform="translate(-135.753 -69.532)" fill="#2abcb4"/>
        <path id="Path_604" data-name="Path 604" d="M119.5,85.97c-3.435,3.12-4.088,7.124-2.114,11.966,2.3,4.074,5.333,4.28,8.985,1.85,2.254-2.19,3.73-5.372,4.14-10.219.174,4.4-.2,7.312-3.92,12.421l-4.713,5.392c-2.99-.129-5.155-1.768-6.475-4.952-2.379-7.836-.406-13,4.1-16.458Z" transform="translate(-101.549 -77.515)" fill="url(#linear-gradient-2)"/>
        <path id="Path_605" data-name="Path 605" d="M63.361,35.312s-3.105-1.233-8.058.07c-8.232,3.32-8.935,9.724-9.155,11.778-.745,6.937,1.588,12.915,5.8,18.279.5.64,1.409,1.59,1.96,2.231-.13.178-.237.451-.411.691-.474-.533-1.277-1.465-1.714-1.946A44.556,44.556,0,0,1,45.136,57.2a25.357,25.357,0,0,1-3.307-10.447c-.04-.523-.4-6.4,3.781-10.472a13.064,13.064,0,0,1,9.47-3.634,12.524,12.524,0,0,1,8.281,2.665Z" transform="translate(-38.915 -31.491)" fill="url(#linear-gradient-3)"/>
        <path id="Path_606" data-name="Path 606" d="M122.921,128.1l-1.846,2.147c-11.731-3.97-6.957-15.365-5.739-17.564C114.81,114.89,112.429,127.215,122.921,128.1Z" transform="translate(-100.649 -100.565)" opacity="0.76" fill="url(#linear-gradient-4)"/>
        <path id="Path_607" data-name="Path 607" d="M104.746,106.781a22.432,22.432,0,0,0-4.189,13.574c1.818,4.145,3.985,6.835,6.672,8.111l3.316-3.848c-10.66-.94-8.051-14.36-5.8-17.839Z" transform="translate(-89.616 -95.473)" fill="url(#linear-gradient-5)"/>
      </g>
      <path id="Path_608" data-name="Path 608" d="M75.593,75.45S71.237,77.674,70.56,83.9c-.029,11.6,6.712,16.547,8.084,17.214.085.041.369.123.477.186-1.028,1.276-2.076,2.669-3.134,3.982-.687-.836-1.528-1.8-2.171-2.613A28.113,28.113,0,0,1,68.3,91.347a14.155,14.155,0,0,1,1.029-10.076,13.1,13.1,0,0,1,6.264-5.82Z" transform="translate(-61.376 -68.436)" fill="url(#linear-gradient-6)"/>
    </g>
  </g>
</svg>
